REM DIRINDEX 1\2,1\3,1\4,1\5
REM DIRNAME folder01,folder02,folder03,folder04,folder05
TITLE ""
FILE "P1Q_t_0792-0801.mp3" MP3
  TRACK 01 AUDIO
    TITLE "3:cjc005_3280"
    INDEX 01 00:00:00
  TRACK 02 AUDIO
    TITLE "0:"
    INDEX 01 00:01:11
  TRACK 03 AUDIO
    TITLE "4:cjc005_3281"
    INDEX 01 00:01:38
  TRACK 04 AUDIO
    TITLE "0:"
    INDEX 01 00:02:36
  TRACK 05 AUDIO
    TITLE "5:cjc005_3282"
    INDEX 01 00:02:59
  TRACK 06 AUDIO
    TITLE "0:"
    INDEX 01 00:06:47
  TRACK 07 AUDIO
    TITLE "3:cjc005_3283"
    INDEX 01 00:07:25
  TRACK 08 AUDIO
    TITLE "0:"
    INDEX 01 00:08:48
  TRACK 09 AUDIO
    TITLE "4:cjc005_3284"
    INDEX 01 00:09:02
  TRACK 10 AUDIO
    TITLE "0:"
    INDEX 01 00:10:12
  TRACK 11 AUDIO
    TITLE "5:cjc005_3285"
    INDEX 01 00:10:33
  TRACK 12 AUDIO
    TITLE "0:"
    INDEX 01 00:14:02
  TRACK 13 AUDIO
    TITLE "3:cjc005_3286"
    INDEX 01 00:14:56
  TRACK 14 AUDIO
    TITLE "0:"
    INDEX 01 00:15:56
  TRACK 15 AUDIO
    TITLE "4:cjc005_3287"
    INDEX 01 00:16:08
  TRACK 16 AUDIO
    TITLE "0:"
    INDEX 01 00:16:65
  TRACK 17 AUDIO
    TITLE "5:cjc005_3288"
    INDEX 01 00:17:12
  TRACK 18 AUDIO
    TITLE "0:"
    INDEX 01 00:20:26
  TRACK 19 AUDIO
    TITLE "3:cjc005_3289"
    INDEX 01 00:21:06
  TRACK 20 AUDIO
    TITLE "0:"
    INDEX 01 00:22:32
  TRACK 21 AUDIO
    TITLE "4:cjc005_3290"
    INDEX 01 00:22:54
  TRACK 22 AUDIO
    TITLE "0:"
    INDEX 01 00:23:59
  TRACK 23 AUDIO
    TITLE "5:cjc005_3291"
    INDEX 01 00:24:10
  TRACK 24 AUDIO
    TITLE "0:"
    INDEX 01 00:27:39
  TRACK 25 AUDIO
    TITLE "3:cjc005_3292"
    INDEX 01 00:28:17
  TRACK 26 AUDIO
    TITLE "0:"
    INDEX 01 00:29:27
  TRACK 27 AUDIO
    TITLE "4:cjc005_3293"
    INDEX 01 00:29:56
  TRACK 28 AUDIO
    TITLE "0:"
    INDEX 01 00:30:71
  TRACK 29 AUDIO
    TITLE "5:cjc005_3294"
    INDEX 01 00:31:22
  TRACK 30 AUDIO
    TITLE "0:"
    INDEX 01 00:35:64
  TRACK 31 AUDIO
    TITLE "3:cjc005_3295"
    INDEX 01 00:36:40
  TRACK 32 AUDIO
    TITLE "0:"
    INDEX 01 00:37:50
  TRACK 33 AUDIO
    TITLE "4:cjc005_3296"
    INDEX 01 00:38:04
  TRACK 34 AUDIO
    TITLE "0:"
    INDEX 01 00:39:11
  TRACK 35 AUDIO
    TITLE "5:cjc005_3297"
    INDEX 01 00:39:35
  TRACK 36 AUDIO
    TITLE "0:"
    INDEX 01 00:43:17
  TRACK 37 AUDIO
    TITLE "3:cjc005_3298"
    INDEX 01 00:43:64
  TRACK 38 AUDIO
    TITLE "0:"
    INDEX 01 00:44:71
  TRACK 39 AUDIO
    TITLE "4:cjc005_3299"
    INDEX 01 00:45:28
  TRACK 40 AUDIO
    TITLE "0:"
    INDEX 01 00:47:05
  TRACK 41 AUDIO
    TITLE "5:cjc005_3300"
    INDEX 01 00:47:28
  TRACK 42 AUDIO
    TITLE "0:"
    INDEX 01 00:51:38
  TRACK 43 AUDIO
    TITLE "3:cjc005_3301"
    INDEX 01 00:52:14
  TRACK 44 AUDIO
    TITLE "0:"
    INDEX 01 00:53:57
  TRACK 45 AUDIO
    TITLE "4:cjc005_3302"
    INDEX 01 00:54:05
  TRACK 46 AUDIO
    TITLE "0:"
    INDEX 01 00:55:14
  TRACK 47 AUDIO
    TITLE "5:cjc005_3303"
    INDEX 01 00:55:42
  TRACK 48 AUDIO
    TITLE "0:"
    INDEX 01 00:59:63
  TRACK 49 AUDIO
    TITLE "3:cjc005_3304"
    INDEX 01 01:00:37
  TRACK 50 AUDIO
    TITLE "0:"
    INDEX 01 01:01:48
  TRACK 51 AUDIO
    TITLE "4:cjc005_3305"
    INDEX 01 01:01:74
  TRACK 52 AUDIO
    TITLE "0:"
    INDEX 01 01:03:14
  TRACK 53 AUDIO
    TITLE "5:cjc005_3306"
    INDEX 01 01:03:35
  TRACK 54 AUDIO
    TITLE "0:"
    INDEX 01 01:07:06
  TRACK 55 AUDIO
    TITLE "3:cjc005_3307"
    INDEX 01 01:07:55
  TRACK 56 AUDIO
    TITLE "0:"
    INDEX 01 01:09:09
  TRACK 57 AUDIO
    TITLE "4:cjc005_3308"
    INDEX 01 01:09:36
  TRACK 58 AUDIO
    TITLE "0:"
    INDEX 01 01:10:59
  TRACK 59 AUDIO
    TITLE "5:cjc005_3309"
    INDEX 01 01:11:09
  TRACK 60 AUDIO
    TITLE "0:"
    INDEX 01 01:15:72
